<svg width="34" height="35" viewBox="0 0 34 35" fill="none" xmlns="http://www.w3.org/2000/svg">
<circle cx="17" cy="17" r="17" fill="#BCE7F0"/>
<path d="M9.304 8.296L7.204 7.932V6.196H11.292C11.908 6.196 12.7387 6.15867 13.784 6.084C14.0267 6.06533 14.3907 6.04667 14.876 6.028C15.38 6.00933 15.828 6 16.22 6C19.6547 6 22.2213 6.85867 23.92 8.576C25.6373 10.2933 26.496 12.7293 26.496 15.884C26.496 18.0867 26.0667 20.0467 25.208 21.764C24.368 23.4813 23.164 24.8253 21.596 25.796C20.028 26.748 18.1987 27.224 16.108 27.224C15.5667 27.224 14.7173 27.1867 13.56 27.112C12.4773 27.0373 11.74 27 11.348 27H7.092V25.32L9.304 25.04V8.296ZM13.364 25.124C13.9987 25.292 14.8853 25.376 16.024 25.376C17.8907 25.3387 19.356 24.592 20.42 23.136C21.484 21.6613 22.016 19.4587 22.016 16.528C22.016 13.7467 21.4933 11.6 20.448 10.088C19.4027 8.55733 17.7787 7.792 15.576 7.792C15.1093 7.792 14.6613 7.82 14.232 7.876C13.8213 7.932 13.532 7.96933 13.364 7.988V25.124Z" fill="black"/>
</svg>
