<svg width="126" height="35" viewBox="0 0 126 35" fill="none" xmlns="http://www.w3.org/2000/svg">
<circle cx="63" cy="18" r="17" fill="#BCE7F0"/>
<path d="M3.304 8.296L1.204 7.932V6.196H5.292C5.908 6.196 6.73867 6.15867 7.784 6.084C8.02667 6.06533 8.39067 6.04667 8.876 6.028C9.38 6.00933 9.828 6 10.22 6C13.6547 6 16.2213 6.85867 17.92 8.576C19.6373 10.2933 20.496 12.7293 20.496 15.884C20.496 18.0867 20.0667 20.0467 19.208 21.764C18.368 23.4813 17.164 24.8253 15.596 25.796C14.028 26.748 12.1987 27.224 10.108 27.224C9.56667 27.224 8.71733 27.1867 7.56 27.112C6.47733 27.0373 5.74 27 5.348 27H1.092V25.32L3.304 25.04V8.296ZM7.364 25.124C7.99867 25.292 8.88533 25.376 10.024 25.376C11.8907 25.3387 13.356 24.592 14.42 23.136C15.484 21.6613 16.016 19.4587 16.016 16.528C16.016 13.7467 15.4933 11.6 14.448 10.088C13.4027 8.55733 11.7787 7.792 9.576 7.792C9.10933 7.792 8.66133 7.82 8.232 7.876C7.82133 7.932 7.532 7.96933 7.364 7.988V25.124ZM29.6168 27.308C27.1528 27.308 25.3141 26.5893 24.1008 25.152C22.9061 23.696 22.3088 21.7173 22.3088 19.216C22.3088 17.536 22.6168 16.08 23.2328 14.848C23.8674 13.616 24.7541 12.6733 25.8928 12.02C27.0314 11.3667 28.3474 11.04 29.8408 11.04C31.7074 11.04 33.1448 11.5347 34.1528 12.524C35.1608 13.4947 35.6834 14.8853 35.7208 16.696C35.7208 17.928 35.6461 18.8427 35.4968 19.44H26.3968C26.4714 21.1387 26.8728 22.464 27.6008 23.416C28.3288 24.3493 29.3648 24.816 30.7088 24.816C31.4368 24.816 32.1834 24.6947 32.9488 24.452C33.7328 24.2093 34.3488 23.92 34.7968 23.584L35.4968 25.124C34.9928 25.6653 34.1714 26.1693 33.0328 26.636C31.9128 27.084 30.7741 27.308 29.6168 27.308ZM31.8008 17.76C31.8381 17.2373 31.8568 16.836 31.8568 16.556C31.8568 14.0733 31.0261 12.832 29.3648 12.832C28.4501 12.832 27.7408 13.196 27.2368 13.924C26.7328 14.652 26.4528 15.9307 26.3968 17.76H31.8008ZM39.2433 6.532L37.2273 6.168V4.656L42.3793 4.04H42.4353L43.1913 4.572V17.872L43.1073 19.356L48.8193 13.364L46.7473 13.056V11.46H54.0553V13.056L51.7873 13.42L48.3433 16.724L53.2433 25.096L54.7833 25.32V27H47.3913V25.32L48.8193 25.068L45.6273 19.16L43.1073 21.708L43.1633 23.136V25.068L44.9273 25.32V27H37.6193V25.32L39.2433 25.068V6.532ZM55.5647 19.244C55.5647 17.4893 55.91 15.996 56.6007 14.764C57.31 13.532 58.2527 12.608 59.4287 11.992C60.6047 11.3573 61.8834 11.04 63.2647 11.04C65.6167 11.04 67.4274 11.768 68.6967 13.224C69.9847 14.6613 70.6287 16.6213 70.6287 19.104C70.6287 20.8773 70.274 22.3893 69.5647 23.64C68.874 24.872 67.9407 25.796 66.7647 26.412C65.6074 27.0093 64.3287 27.308 62.9287 27.308C60.5954 27.308 58.7847 26.5893 57.4967 25.152C56.2087 23.696 55.5647 21.7267 55.5647 19.244ZM63.1527 25.488C65.262 25.488 66.3167 23.4533 66.3167 19.384C66.3167 17.256 66.0647 15.6413 65.5607 14.54C65.0567 13.42 64.2354 12.86 63.0967 12.86C60.9314 12.86 59.8487 14.8947 59.8487 18.964C59.8487 21.092 60.11 22.716 60.6327 23.836C61.174 24.9373 62.014 25.488 63.1527 25.488ZM73.1741 25.348L75.0221 25.124V14.092L73.2301 13.588V11.656L77.5701 11.068H77.6541L78.3541 11.628V12.244L78.2701 14.512H78.3541C78.4847 14.1387 78.7927 13.6813 79.2781 13.14C79.7634 12.58 80.3701 12.0947 81.0981 11.684C81.8447 11.2547 82.6474 11.04 83.5061 11.04C83.9167 11.04 84.2714 11.096 84.5701 11.208V15.408C84.0101 15.016 83.3287 14.82 82.5261 14.82C81.1634 14.82 79.9781 15.184 78.9701 15.912V25.096L82.2181 25.348V27H73.1741V25.348ZM86.0458 22.632C86.0458 20.9333 86.8951 19.6547 88.5938 18.796C90.3111 17.9373 92.5231 17.4987 95.2298 17.48V16.836C95.2298 16.0707 95.1458 15.4733 94.9778 15.044C94.8284 14.6147 94.5391 14.2973 94.1098 14.092C93.6991 13.868 93.0924 13.756 92.2897 13.756C91.3751 13.756 90.5538 13.8773 89.8258 14.12C89.0978 14.344 88.3418 14.6427 87.5578 15.016L86.6898 13.224C86.9698 12.9813 87.4364 12.692 88.0898 12.356C88.7618 12.02 89.5551 11.7307 90.4698 11.488C91.3844 11.2267 92.3271 11.096 93.2978 11.096C94.7351 11.096 95.8551 11.2827 96.6578 11.656C97.4791 12.0293 98.0671 12.6267 98.4218 13.448C98.7764 14.2693 98.9538 15.3707 98.9538 16.752V25.32H100.466V26.888C100.092 26.9813 99.5604 27.0747 98.8698 27.168C98.1791 27.2613 97.5724 27.308 97.0498 27.308C96.4151 27.308 95.9858 27.2147 95.7618 27.028C95.5564 26.8413 95.4538 26.4587 95.4538 25.88V25.124C94.9498 25.684 94.2964 26.188 93.4938 26.636C92.6911 27.084 91.7858 27.308 90.7778 27.308C89.9191 27.308 89.1258 27.1307 88.3978 26.776C87.6884 26.4027 87.1191 25.8707 86.6898 25.18C86.2604 24.4707 86.0458 23.6213 86.0458 22.632ZM92.5698 24.984C92.9618 24.984 93.4098 24.872 93.9138 24.648C94.4178 24.4053 94.8564 24.116 95.2298 23.78V19.188C93.5498 19.188 92.2898 19.4773 91.4498 20.056C90.6284 20.616 90.2178 21.344 90.2178 22.24C90.2178 23.136 90.4231 23.8173 90.8338 24.284C91.2631 24.7507 91.8418 24.984 92.5698 24.984ZM105.321 24.704C105.47 24.928 105.806 25.1427 106.329 25.348C106.87 25.5347 107.412 25.628 107.953 25.628C108.83 25.628 109.484 25.4507 109.913 25.096C110.361 24.7227 110.585 24.2373 110.585 23.64C110.585 23.024 110.314 22.5293 109.773 22.156C109.232 21.764 108.317 21.288 107.029 20.728L106.245 20.392C104.957 19.8507 103.996 19.1973 103.361 18.432C102.726 17.6667 102.409 16.6773 102.409 15.464C102.409 14.624 102.661 13.8773 103.165 13.224C103.669 12.552 104.378 12.0293 105.293 11.656C106.208 11.2827 107.262 11.096 108.457 11.096C109.334 11.096 110.081 11.152 110.697 11.264C111.332 11.376 111.994 11.5253 112.685 11.712C113.058 11.8427 113.338 11.9173 113.525 11.936V15.604H111.313L110.669 13.476C110.557 13.2893 110.305 13.1213 109.913 12.972C109.521 12.8227 109.073 12.748 108.569 12.748C107.804 12.748 107.188 12.916 106.721 13.252C106.273 13.5693 106.049 14.0173 106.049 14.596C106.049 15.1187 106.208 15.5573 106.525 15.912C106.842 16.248 107.188 16.5093 107.561 16.696C107.934 16.8827 108.625 17.1907 109.633 17.62C110.641 18.0493 111.472 18.46 112.125 18.852C112.797 19.244 113.348 19.7573 113.777 20.392C114.225 21.008 114.449 21.764 114.449 22.66C114.449 24.0413 113.908 25.1613 112.825 26.02C111.742 26.8787 110.184 27.308 108.149 27.308C107.197 27.308 106.338 27.224 105.573 27.056C104.826 26.888 103.958 26.664 102.969 26.384L102.353 26.188V22.492H104.677L105.321 24.704ZM120.065 8.884C119.393 8.884 118.861 8.688 118.469 8.296C118.077 7.904 117.881 7.4 117.881 6.784C117.881 6.07467 118.105 5.48667 118.553 5.02C119.001 4.55333 119.598 4.32 120.345 4.32C121.091 4.32 121.661 4.52533 122.053 4.936C122.445 5.328 122.641 5.82267 122.641 6.42C122.641 7.16667 122.417 7.764 121.969 8.212C121.521 8.66 120.895 8.884 120.093 8.884H120.065ZM118.581 14.092L116.593 13.56V11.684L121.717 11.068H121.773L122.557 11.628V25.096L124.433 25.32V27H116.621V25.32L118.581 25.068V14.092Z" fill="black"/>
</svg>
